<?xml version="1.0" encoding="UTF-8"?> <!-- Generator: Adobe Illustrator 22.0.0, SVG Export Plug-In . SVG Version: 6.00 Build 0) --> <svg xmlns="http://www.w3.org/2000/svg" xmlns:xlink="http://www.w3.org/1999/xlink" id="Layer_1" x="0px" y="0px" viewBox="0 0 511.5 105.2" style="enable-background:new 0 0 511.5 105.2;" xml:space="preserve"> <style type="text/css"> .st0{fill:#021768;} .st1{fill:url(#SVGID_1_);} .st2{fill:#FFFFFF;} .st3{fill:#070044;} </style> <g> <g> <g> <g> <g> <path class="st0" d="M42.7,92.3h39.5c1.2,0,2.2-1,2.2-2.2V88c0-1.2-1-2.2-2.2-2.2H42.7c-1.2,0-2.2,1-2.2,2.2v2.1 C40.5,91.3,41.5,92.3,42.7,92.3z"></path> </g> </g> </g> <g> <g> <g> <path class="st0" d="M104,78.7H20.9c-3.9,0-7.1-3.2-7.1-7.1V20.1c0-3.9,3.2-7.1,7.1-7.1H104c3.9,0,7.1,3.2,7.1,7.1v51.5 C111.2,75.5,108,78.7,104,78.7z"></path> </g> </g> </g> <linearGradient id="SVGID_1_" gradientUnits="userSpaceOnUse" x1="26.6909" y1="14.9393" x2="95.536" y2="74.3294"> <stop offset="0" style="stop-color:#73CFF2"></stop> <stop offset="0.5" style="stop-color:#22A6F9"></stop> <stop offset="1" style="stop-color:#995DE3"></stop> </linearGradient> <path class="st1" d="M104,36.3V23c0-1.6-1.3-2.8-2.8-2.8H79.5h-2.4H23.8c-1.6,0-2.8,1.3-2.8,2.8v13.2c4.8,0.7,8.4,4.7,8.4,9.7 c0,4.9-3.7,9-8.4,9.7v13.2c0,1.6,1.3,2.8,2.8,2.8h53.3h2.4h21.7c1.6,0,2.8-1.3,2.8-2.8V55.4c-4.4-1-7.6-4.9-7.6-9.5 C96.4,41.1,99.7,37.3,104,36.3z"></path> <g> <g> <g> <rect x="79.5" y="20.1" class="st2" width="4.9" height="8"></rect> </g> <g> <rect x="79.5" y="34.6" class="st2" width="4.9" height="8"></rect> </g> <g> <rect x="79.5" y="49" class="st2" width="4.9" height="8"></rect> </g> <g> <rect x="79.5" y="63.5" class="st2" width="4.9" height="8"></rect> </g> </g> </g> </g> <path class="st3" d="M153.8,30v29.1h13.7v6.8h-20.7V30H153.8z"></path> <path class="st3" d="M192.5,62.7c-2.6,2.6-5.8,3.9-9.6,3.9s-7-1.3-9.6-3.9c-2.6-2.6-3.9-5.8-3.9-9.6c0-3.8,1.3-7,3.9-9.6 c2.6-2.6,5.8-3.9,9.6-3.9c3.8,0,7,1.3,9.6,3.9c2.6,2.6,3.9,5.8,3.9,9.6C196.4,56.8,195.1,60,192.5,62.7z M177.9,58.1 c1.3,1.3,3,2,5,2s3.6-0.7,5-2s2-3,2-5.1s-0.7-3.7-2-5.1s-3-2-5-2s-3.6,0.7-5,2c-1.3,1.4-1.9,3.1-1.9,5.1S176.6,56.7,177.9,58.1z"></path> <path class="st3" d="M217.6,40.2v6.3h-8.2v10.6c0,0.9,0.2,1.5,0.7,1.9s1.1,0.6,1.9,0.7c0.9,0.1,1.9,0,3.2,0v6 c-4.5,0.5-7.7,0.1-9.5-1.3c-1.9-1.3-2.8-3.8-2.8-7.3V46.6h-4.5v-6.3h4.5v-7.2h6.6v7.2H217.6z"></path> <path class="st3" d="M233.5,40.2v6.3h-5.8v10.6c0,0.9,0.2,1.5,0.7,1.9s1.1,0.6,1.9,0.7c0.9,0.1,1.9,0,3.2,0v6 c-4.5,0.5-7.7,0.1-9.5-1.3c-1.9-1.3-2.8-3.8-2.8-7.3V46.6h-4.5v-6.3h4.5v-7.2h6.6v7.2H233.5z"></path> <path class="st3" d="M262.2,55.7h-19.3c0.9,3.2,3.3,4.8,7.2,4.8c2.5,0,4.4-0.9,5.7-2.6l5.3,3.1c-2.5,3.7-6.2,5.5-11.2,5.5 c-4.2,0-7.6-1.3-10.2-3.8c-2.6-2.6-3.8-5.8-3.8-9.7c0-3.8,1.3-7,3.8-9.6c2.5-2.6,5.7-3.9,9.7-3.9c3.8,0,6.9,1.3,9.3,3.9 c2.5,2.6,3.7,5.8,3.7,9.6C262.5,53.8,262.4,54.7,262.2,55.7z M242.8,50.6h13.1c-0.4-1.7-1.1-3-2.3-3.8c-1.1-0.9-2.5-1.3-4.1-1.3 c-1.8,0-3.2,0.5-4.4,1.4C244,47.7,243.2,49,242.8,50.6z"></path> <path class="st3" d="M273.7,40.2v4.4c0.6-1.6,1.6-2.8,3-3.7c1.4-0.8,3-1.3,4.8-1.3v7.4c-2-0.3-3.8,0.1-5.4,1.2 c-1.6,1.1-2.4,2.8-2.4,5.3v12.2h-6.6V40.2H273.7z"></path> <path class="st3" d="M325.9,30h14.2c4.9,0,9,1.7,12.3,5.2c3.3,3.4,5,7.7,5,12.7c0,5.1-1.7,9.3-5,12.7c-3.3,3.4-7.4,5.2-12.3,5.2 h-14.2V30z M332.9,59.1h7.2c3.1,0,5.6-1,7.6-3.1c1.9-2.1,2.9-4.8,2.9-8.1c0-3.3-1-6-2.9-8c-1.9-2.1-4.5-3.1-7.6-3.1h-7.2V59.1z"></path> <path class="st3" d="M365.4,37.2c-1.1,0-2-0.4-2.8-1.2c-0.8-0.8-1.2-1.7-1.2-2.8c0-1.1,0.4-2,1.2-2.9c0.8-0.8,1.7-1.2,2.8-1.2 c1.1,0,2.1,0.4,2.9,1.2c0.8,0.8,1.2,1.8,1.2,2.9c0,1.1-0.4,2-1.2,2.8C367.4,36.8,366.5,37.2,365.4,37.2z M368.7,65.8h-6.6V40.2h6.6 V65.8z"></path> <path class="st3" d="M380.6,47.5c0,1.1,1.6,2,4.7,2.8c1.1,0.2,2.1,0.5,3,0.8c0.9,0.3,1.8,0.8,2.7,1.4c0.9,0.6,1.6,1.4,2.1,2.4 s0.8,2.1,0.8,3.4c0,2.6-1,4.7-3,6.1c-2,1.4-4.4,2.1-7.3,2.1c-5.3,0-8.8-2-10.8-6.1l5.7-3.2c0.8,2.2,2.5,3.3,5,3.3 c2.4,0,3.5-0.7,3.5-2.2c0-1.1-1.6-2-4.7-2.8c-1.2-0.3-2.2-0.6-3-0.9c-0.8-0.3-1.7-0.8-2.7-1.4c-1-0.6-1.7-1.4-2.2-2.3 c-0.5-0.9-0.7-2-0.7-3.3c0-2.5,0.9-4.5,2.8-5.9c1.9-1.5,4.2-2.2,7-2.2c2.1,0,4,0.5,5.7,1.4c1.7,0.9,3.1,2.3,4,4l-5.6,3.1 c-0.8-1.7-2.2-2.6-4.1-2.6c-0.9,0-1.6,0.2-2.1,0.6C380.9,46.4,380.6,46.9,380.6,47.5z"></path> <path class="st3" d="M413.2,39.5c3.4,0,6.4,1.3,8.8,3.9c2.5,2.6,3.7,5.8,3.7,9.6c0,3.8-1.2,7-3.7,9.6c-2.4,2.6-5.3,3.9-8.8,3.9 c-3.6,0-6.3-1.2-8.3-3.7v13.3h-6.6V40.2h6.6v3C406.9,40.8,409.6,39.5,413.2,39.5z M406.9,58.3c1.3,1.3,3,2,5.1,2s3.7-0.7,5.1-2 c1.4-1.4,2-3.1,2-5.2s-0.7-3.8-2-5.2c-1.3-1.4-3-2-5.1-2s-3.7,0.7-5.1,2c-1.3,1.3-2,3.1-2,5.2S405.6,56.9,406.9,58.3z"></path> <path class="st3" d="M437,65.8h-6.6V28.5h6.6V65.8z"></path> <path class="st3" d="M462.5,43.3v-3h6.6v25.6h-6.6v-3c-2,2.5-4.8,3.7-8.3,3.7c-3.4,0-6.3-1.3-8.8-3.9c-2.4-2.6-3.6-5.8-3.6-9.6 c0-3.8,1.2-6.9,3.6-9.6c2.5-2.6,5.4-3.9,8.8-3.9C457.7,39.5,460.5,40.8,462.5,43.3z M450.3,58.3c1.3,1.3,3,2,5.1,2s3.7-0.7,5.1-2 c1.4-1.4,2-3.1,2-5.2s-0.7-3.8-2-5.2c-1.3-1.4-3-2-5.1-2s-3.7,0.7-5.1,2c-1.3,1.3-2,3.1-2,5.2S449,56.9,450.3,58.3z"></path> <path class="st3" d="M497.7,40.2v25c0,3.9-1.1,6.9-3.3,9.1c-2.2,2.2-5.1,3.3-8.8,3.3c-2.3,0-4.4-0.4-6.5-1.3c-2-0.9-3.8-2-5.3-3.4 l3.6-4.8c1.3,1.1,2.5,1.9,3.6,2.5s2.4,0.8,3.8,0.8c1.8,0,3.2-0.5,4.3-1.4c1.1-0.9,1.6-2.3,1.6-4.2V62c-1.9,1.8-4.2,2.7-7,2.7 c-2.9,0-5.2-0.9-6.9-2.8c-1.7-1.9-2.6-4.4-2.6-7.4V40.2h6.9v13.3c0,1.5,0.4,2.7,1.3,3.6s2,1.4,3.4,1.4s2.6-0.5,3.5-1.4 c0.9-0.9,1.3-2.1,1.3-3.6V40.2H497.7z"></path> <path class="st3" d="M308.3,40.2v25c0,3.9-1.1,6.9-3.3,9.1c-2.2,2.2-5.1,3.3-8.8,3.3c-2.3,0-4.4-0.4-6.5-1.3c-2-0.9-3.8-2-5.3-3.4 l3.6-4.8c1.3,1.1,2.5,1.9,3.6,2.5s2.4,0.8,3.8,0.8c1.8,0,3.2-0.5,4.3-1.4c1.1-0.9,1.6-2.3,1.6-4.2V62c-1.9,1.8-4.2,2.7-7,2.7 c-2.9,0-5.2-0.9-6.9-2.8c-1.7-1.9-2.6-4.4-2.6-7.4V40.2h6.9v13.3c0,1.5,0.4,2.7,1.3,3.6s2,1.4,3.4,1.4s2.6-0.5,3.5-1.4 c0.9-0.9,1.3-2.1,1.3-3.6V40.2H308.3z"></path> </g> </svg> 